<svg width="699" height="636" viewBox="0 0 699 636" fill="none" xmlns="http://www.w3.org/2000/svg">
<g filter="url(#filter0_i_112_165)">
<path fill-rule="evenodd" clip-rule="evenodd" d="M408.559 17.5754C446.717 36.6571 463.92 64.7865 484.829 101.973C503.991 136.052 500.37 191.249 523.809 222.54C552.13 260.349 618.688 286.503 643.3 320.348C668.192 354.579 702.842 414.627 698.227 459.745C693.026 510.599 671.724 571.482 634.406 594.145C599.248 624.413 540.395 583.586 500.892 603.004C459.349 623.425 407.113 640.662 361.384 633.473C326.101 627.926 291.917 620.28 257.946 609.254C227.264 599.295 200.792 580.326 169.824 571.297C130.818 559.925 84.832 571.522 51.0575 548.937C18.0513 526.865 -3.24673 488 -12.486 449.384C-21.6704 410.997 -13.3083 369.979 -0.709452 332.574C10.9278 298.023 50.383 276.898 57.644 241.171C67.35 193.413 24.8498 139.867 47.2513 96.5865C67.0094 58.4135 121.938 55.865 161.835 39.8712C201.027 24.1602 239.71 6.37665 281.762 2.57652C324.513 -1.28686 370.167 -1.62431 408.559 17.5754Z" fill="url(#paint0_radial_112_165)"/>
</g>
<defs>
<filter id="filter0_i_112_165" x="-16.3749" y="0.475403" width="715.02" height="634.66" filterUnits="userSpaceOnUse" color-interpolation-filters="sRGB">
<feFlood flood-opacity="0" result="BackgroundImageFix"/>
<feBlend mode="normal" in="SourceGraphic" in2="BackgroundImageFix" result="shape"/>
<feColorMatrix in="SourceAlpha" type="matrix" values="0 0 0 0 0 0 0 0 0 0 0 0 0 0 0 0 0 0 127 0" result="hardAlpha"/>
<feOffset dy="8"/>
<feComposite in2="hardAlpha" operator="arithmetic" k2="-1" k3="1"/>
<feColorMatrix type="matrix" values="0 0 0 0 0 0 0 0 0 0 0 0 0 0 0 0 0 0 0.4 0"/>
<feBlend mode="normal" in2="shape" result="effect1_innerShadow_112_165"/>
</filter>
<radialGradient id="paint0_radial_112_165" cx="0" cy="0" r="1" gradientUnits="userSpaceOnUse" gradientTransform="translate(359.124 328.033) rotate(108.84) scale(311.042 370.531)">
<stop stop-color="#DA4E7A"/>
<stop offset="0.494792" stop-color="#DA4E7A"/>
</radialGradient>
</defs>
</svg>
