<svg width="28" height="28" viewBox="0 0 28 28" fill="none" xmlns="http://www.w3.org/2000/svg">
<path d="M22.1667 4.66666H5.83337C4.90512 4.66666 4.01488 5.03541 3.3585 5.69178C2.70212 6.34816 2.33337 7.2384 2.33337 8.16666V19.8333C2.33337 20.7616 2.70212 21.6518 3.3585 22.3082C4.01488 22.9646 4.90512 23.3333 5.83337 23.3333H22.1667C23.095 23.3333 23.9852 22.9646 24.6416 22.3082C25.298 21.6518 25.6667 20.7616 25.6667 19.8333V8.16666C25.6667 7.2384 25.298 6.34816 24.6416 5.69178C23.9852 5.03541 23.095 4.66666 22.1667 4.66666ZM21.385 6.99999L14 12.5417L6.61504 6.99999H21.385ZM22.1667 21H5.83337C5.52396 21 5.22721 20.8771 5.00842 20.6583C4.78962 20.4395 4.66671 20.1427 4.66671 19.8333V8.45832L13.3 14.9333C13.502 15.0848 13.7476 15.1667 14 15.1667C14.2525 15.1667 14.4981 15.0848 14.7 14.9333L23.3334 8.45832V19.8333C23.3334 20.1427 23.2105 20.4395 22.9917 20.6583C22.7729 20.8771 22.4761 21 22.1667 21Z" fill="#231F20"/>
</svg>
