<svg width="22" height="22" viewBox="0 0 22 22" fill="none" xmlns="http://www.w3.org/2000/svg">
<path d="M15.4461 0H6.55392C2.94007 0 0 2.94007 0 6.55392V15.4461C0 19.0599 2.94007 22 6.55392 22H15.4461C19.0599 22 22 19.0599 22 15.4461V6.55392C22 2.94007 19.0599 0 15.4461 0ZM19.7868 15.4461C19.7868 17.8434 17.8434 19.7868 15.4461 19.7868H6.55392C4.15663 19.7868 2.2132 17.8434 2.2132 15.4461V6.55392C2.2132 4.15659 4.15663 2.2132 6.55392 2.2132H15.4461C17.8434 2.2132 19.7868 4.15659 19.7868 6.55392V15.4461Z" fill="url(#paint0_linear_108_72)"/>
<path d="M10.9999 5.31C7.86246 5.31 5.30994 7.86252 5.30994 10.9999C5.30994 14.1374 7.86246 16.6899 10.9999 16.6899C14.1374 16.6899 16.6899 14.1374 16.6899 10.9999C16.6899 7.86248 14.1374 5.31 10.9999 5.31ZM10.9999 14.4768C9.07973 14.4768 7.52314 12.9202 7.52314 11C7.52314 9.07979 9.07977 7.5232 10.9999 7.5232C12.9201 7.5232 14.4767 9.07979 14.4767 11C14.4767 12.9201 12.9201 14.4768 10.9999 14.4768Z" fill="url(#paint1_linear_108_72)"/>
<path d="M16.7011 6.71616C17.4541 6.71616 18.0645 6.10573 18.0645 5.35273C18.0645 4.59972 17.4541 3.98929 16.7011 3.98929C15.9481 3.98929 15.3376 4.59972 15.3376 5.35273C15.3376 6.10573 15.9481 6.71616 16.7011 6.71616Z" fill="url(#paint2_linear_108_72)"/>
<defs>
<linearGradient id="paint0_linear_108_72" x1="11" y1="21.936" x2="11" y2="0.170878" gradientUnits="userSpaceOnUse">
<stop stop-color="#E09B3D"/>
<stop offset="0.3" stop-color="#C74C4D"/>
<stop offset="0.6" stop-color="#C21975"/>
<stop offset="1" stop-color="#7024C4"/>
</linearGradient>
<linearGradient id="paint1_linear_108_72" x1="10.9999" y1="21.9359" x2="10.9999" y2="0.170859" gradientUnits="userSpaceOnUse">
<stop stop-color="#E09B3D"/>
<stop offset="0.3" stop-color="#C74C4D"/>
<stop offset="0.6" stop-color="#C21975"/>
<stop offset="1" stop-color="#7024C4"/>
</linearGradient>
<linearGradient id="paint2_linear_108_72" x1="16.7011" y1="21.9359" x2="16.7011" y2="0.170867" gradientUnits="userSpaceOnUse">
<stop stop-color="#E09B3D"/>
<stop offset="0.3" stop-color="#C74C4D"/>
<stop offset="0.6" stop-color="#C21975"/>
<stop offset="1" stop-color="#7024C4"/>
</linearGradient>
</defs>
</svg>
