<svg width="25" height="25" viewBox="0 0 25 25" fill="none" xmlns="http://www.w3.org/2000/svg">
<path d="M12.0684 21.3724C9.60836 21.3724 9.31836 21.3594 8.35836 21.3174C7.60973 21.2928 6.87079 21.1406 6.17336 20.8674C4.96667 20.3978 4.0125 19.4433 3.54336 18.2364C3.28067 17.5365 3.13898 16.7969 3.12436 16.0494C3.06836 15.0914 3.06836 14.7774 3.06836 12.3364C3.06836 9.86943 3.08136 9.58143 3.12436 8.62643C3.1393 7.87995 3.28098 7.14143 3.54336 6.44243C4.01199 5.23396 4.96771 4.2786 6.17636 3.81043C6.875 3.54663 7.61371 3.40457 8.36036 3.39043C9.31536 3.33643 9.62936 3.33643 12.0684 3.33643C14.5484 3.33643 14.8334 3.34943 15.7784 3.39043C16.5269 3.40469 17.2676 3.54674 17.9684 3.81043C19.1767 4.27913 20.1322 5.2343 20.6014 6.44243C20.8685 7.15162 21.0109 7.90168 21.0224 8.65943C21.0784 9.61743 21.0784 9.93043 21.0784 12.3704C21.0784 14.8104 21.0644 15.1304 21.0224 16.0774C21.0075 16.8256 20.8654 17.5658 20.6024 18.2664C20.132 19.4741 19.1764 20.429 17.9684 20.8984C17.2686 21.1606 16.5295 21.3023 15.7824 21.3174C14.8274 21.3724 14.5144 21.3724 12.0684 21.3724ZM12.0344 4.91943C9.58836 4.91943 9.33436 4.93143 8.37936 4.97443C7.80934 4.98198 7.24484 5.08717 6.71036 5.28543C5.92111 5.58743 5.29659 6.20942 4.99136 6.99743C4.79157 7.53772 4.68637 8.1084 4.68036 8.68443C4.62736 9.65343 4.62736 9.90743 4.62736 12.3364C4.62736 14.7364 4.63636 15.0274 4.68036 15.9904C4.68931 16.5606 4.79446 17.1252 4.99136 17.6604C5.29704 18.4479 5.92145 19.0694 6.71036 19.3714C7.24447 19.571 7.80921 19.6762 8.37936 19.6824C9.34736 19.7384 9.60236 19.7384 12.0344 19.7384C14.4874 19.7384 14.7414 19.7264 15.6884 19.6824C16.2588 19.6755 16.8237 19.5703 17.3584 19.3714C18.1428 19.0668 18.7633 18.4467 19.0684 17.6624C19.2678 17.1217 19.3729 16.5507 19.3794 15.9744H19.3904C19.4334 15.0184 19.4334 14.7634 19.4334 12.3204C19.4334 9.87743 19.4224 9.62043 19.3794 8.66543C19.3704 8.09588 19.2652 7.53194 19.0684 6.99743C18.764 6.212 18.1434 5.59072 17.3584 5.28543C16.8238 5.08617 16.2588 4.98095 15.6884 4.97443C14.7214 4.91943 14.4684 4.91943 12.0344 4.91943ZM12.0684 16.9554C10.1983 16.9566 8.51178 15.8312 7.79522 14.1039C7.07867 12.3766 7.47327 10.3878 8.79499 9.06489C10.1167 7.74202 12.1052 7.3457 13.8331 8.06076C15.561 8.77582 16.688 10.4614 16.6884 12.3314C16.6856 14.8825 14.6194 16.9505 12.0684 16.9554ZM12.0684 9.32943C10.4115 9.32943 9.06836 10.6726 9.06836 12.3294C9.06836 13.9863 10.4115 15.3294 12.0684 15.3294C13.7252 15.3294 15.0684 13.9863 15.0684 12.3294C15.0645 10.6742 13.7236 9.33327 12.0684 9.32943ZM16.8684 8.61643C16.2738 8.61422 15.7933 8.13101 15.7944 7.53643C15.7955 6.94185 16.2778 6.46043 16.8724 6.46043C17.4669 6.46043 17.9493 6.94185 17.9504 7.53643C17.9506 7.82329 17.8367 8.09845 17.6336 8.3011C17.4306 8.50376 17.1552 8.61722 16.8684 8.61643Z" fill="#215AA8"/>
</svg>
