<svg width="25" height="25" viewBox="0 0 25 25" fill="none" xmlns="http://www.w3.org/2000/svg">
<path d="M21.5664 4.65507V20.008C21.5664 20.359 21.427 20.6957 21.1788 20.9439C20.9305 21.1921 20.5939 21.3315 20.2429 21.3315H4.88994C4.53891 21.3315 4.20227 21.1921 3.95406 20.9439C3.70585 20.6957 3.56641 20.359 3.56641 20.008V4.65507C3.56641 4.30405 3.70585 3.96741 3.95406 3.7192C4.20227 3.47099 4.53891 3.33154 4.88994 3.33154H20.2429C20.5939 3.33154 20.9305 3.47099 21.1788 3.7192C21.427 3.96741 21.5664 4.30405 21.5664 4.65507ZM8.86052 10.2139H6.21347V18.6845H8.86052V10.2139ZM9.09876 7.30213C9.10015 7.1019 9.0621 6.90336 8.98676 6.71784C8.91142 6.53232 8.80028 6.36346 8.65968 6.22089C8.51908 6.07832 8.35178 5.96485 8.16732 5.88694C7.98287 5.80903 7.78487 5.76822 7.58464 5.76684H7.53699C7.12981 5.76684 6.7393 5.92859 6.45138 6.21651C6.16345 6.50444 6.0017 6.89495 6.0017 7.30213C6.0017 7.70932 6.16345 8.09982 6.45138 8.38775C6.7393 8.67567 7.12981 8.83743 7.53699 8.83743C7.73724 8.84235 7.93649 8.80777 8.12336 8.73567C8.31024 8.66356 8.48107 8.55534 8.62611 8.41719C8.77114 8.27904 8.88754 8.11366 8.96864 7.93051C9.04973 7.74736 9.09395 7.55002 9.09876 7.34978V7.30213ZM18.9193 13.5386C18.9193 10.9921 17.2993 10.0021 15.6899 10.0021C15.163 9.97575 14.6383 10.088 14.1683 10.3276C13.6982 10.5673 13.2993 10.926 13.0111 11.368H12.937V10.2139H10.4488V18.6845H13.0958V14.1792C13.0576 13.7178 13.2029 13.2599 13.5003 12.905C13.7977 12.5501 14.2231 12.3269 14.6841 12.2839H14.7846C15.6264 12.2839 16.2511 12.8133 16.2511 14.1474V18.6845H18.8982L18.9193 13.5386Z" fill="#215AA8"/>
</svg>
