<svg width="22" height="22" viewBox="0 0 22 22" fill="none" xmlns="http://www.w3.org/2000/svg">
<path d="M20.377 8.33116e-05H1.62295C1.19743 -0.00424723 0.787576 0.160403 0.483313 0.457905C0.179049 0.755407 0.00523154 1.16146 0 1.58697V20.4168C0.00617764 20.8417 0.180411 21.2468 0.484572 21.5435C0.788732 21.8403 1.19805 22.0044 1.62295 22.0001H20.377C20.8026 22.0035 21.2122 21.8382 21.5163 21.5406C21.8204 21.2429 21.9943 20.8369 22 20.4114V1.58156C21.9924 1.1573 21.8177 0.753181 21.5138 0.457044C21.2099 0.160908 20.8014 -0.00331076 20.377 8.33116e-05Z" fill="#0076B2"/>
<path d="M3.25674 8.24648H6.52248V18.7542H3.25674V8.24648ZM4.89051 3.01697C5.26508 3.01697 5.63123 3.12806 5.94264 3.3362C6.25406 3.54433 6.49674 3.84015 6.64 4.18624C6.78326 4.53232 6.82065 4.91313 6.74744 5.28047C6.67424 5.64781 6.49372 5.98518 6.22874 6.24991C5.96376 6.51464 5.62621 6.69484 5.2588 6.76769C4.89139 6.84055 4.51062 6.80279 4.16467 6.6592C3.81872 6.51562 3.52313 6.27265 3.3153 5.96104C3.10746 5.64943 2.99671 5.28317 2.99707 4.90861C2.99755 4.40675 3.19725 3.92561 3.55228 3.57091C3.90732 3.21621 4.38865 3.01697 4.89051 3.01697Z" fill="white"/>
<path d="M8.57117 8.24647H11.7017V9.68909H11.7449C12.1813 8.86319 13.2453 7.99221 14.834 7.99221C18.1412 7.98499 18.7543 10.1615 18.7543 12.9837V18.7542H15.4885V13.6419C15.4885 12.4247 15.4669 10.8576 13.7917 10.8576C12.1164 10.8576 11.8315 12.1848 11.8315 13.5625V18.7542H8.57117V8.24647Z" fill="white"/>
</svg>
