<svg width="21" height="22" viewBox="0 0 21 22" fill="none" xmlns="http://www.w3.org/2000/svg">
<path d="M3.76625 14.2091C3.89848 13.1142 4.34751 12.5013 5.19366 11.8729C6.40442 11.0219 7.91675 11.5032 7.91675 11.5032V8.64739C8.28449 8.63792 8.65231 8.65975 9.0159 8.71246V12.3877C9.0159 12.3877 7.504 11.9064 6.29332 12.7578C5.44759 13.3858 4.99764 13.9992 4.86586 15.0941C4.86173 15.6886 4.9733 16.4657 5.48711 17.1376C5.36002 17.0724 5.23056 16.9982 5.09864 16.915C3.96689 16.155 3.76074 15.0149 3.76625 14.2091ZM15.2606 3.36679C14.4277 2.45414 14.1127 1.53268 13.9989 0.885376H15.0466C15.0466 0.885376 14.8377 2.58263 16.3602 4.25173L16.3813 4.27417C15.9709 4.01606 15.5947 3.7114 15.2606 3.36679ZM20.3077 5.95426V9.55557C20.3077 9.55557 18.9708 9.50328 17.9814 9.25155C16.5998 8.89946 15.7118 8.35953 15.7118 8.35953C15.7118 8.35953 15.0985 7.97453 15.0489 7.94771V15.3845C15.0489 15.7986 14.9355 16.8327 14.5898 17.6951C14.1384 18.8235 13.442 19.564 13.3139 19.7154C13.3139 19.7154 12.4668 20.7165 10.9723 21.3907C9.62522 21.9988 8.44247 21.9834 8.08894 21.9988C8.08894 21.9988 6.04447 22.0798 4.20472 20.8842C3.80689 20.6206 3.43554 20.3222 3.09546 19.9926L3.10465 19.9992C4.94484 21.1948 6.98886 21.1138 6.98886 21.1138C7.34289 21.0984 8.52556 21.1138 9.87221 20.5057C11.3653 19.8316 12.2138 18.8305 12.2138 18.8305C12.3405 18.6791 13.0402 17.9385 13.4897 16.8098C13.8345 15.9477 13.9488 14.9132 13.9488 14.4991V7.06323C13.9984 7.09047 14.6113 7.47547 14.6113 7.47547C14.6113 7.47547 15.4998 8.01591 16.8813 8.36749C17.8711 8.61922 19.2077 8.6716 19.2077 8.6716V5.84954C19.665 5.95206 20.0548 5.97981 20.3077 5.95426Z" fill="#EE1D52"/>
<path d="M19.2085 5.84954V8.67066C19.2085 8.67066 17.8719 8.61829 16.8821 8.36664C15.5006 8.01456 14.6121 7.47463 14.6121 7.47463C14.6121 7.47463 13.9991 7.08963 13.9496 7.0623V14.5C13.9496 14.9141 13.8362 15.9486 13.4904 16.8106C13.0391 17.9394 12.3426 18.68 12.2145 18.8313C12.2145 18.8313 11.367 19.8324 9.87296 20.5066C8.52631 21.1148 7.34364 21.0994 6.98961 21.1148C6.98961 21.1148 4.94559 21.1958 3.10539 20.0001L3.09621 19.9935C2.90193 19.8054 2.71905 19.6068 2.54847 19.3986C1.96124 18.6826 1.60129 17.8359 1.51084 17.5944C1.51068 17.5933 1.51068 17.5923 1.51084 17.5913C1.3653 17.1715 1.05951 16.1633 1.1013 15.1869C1.17522 13.4641 1.78127 12.4067 1.9415 12.1417C2.36587 11.4194 2.91783 10.773 3.57279 10.2316C4.15076 9.76423 4.80586 9.39243 5.51122 9.13139C6.27377 8.82492 7.09031 8.66059 7.91708 8.64739V11.5032C7.91708 11.5032 6.40467 11.0236 5.19442 11.8729C4.34826 12.5013 3.89923 13.1142 3.767 14.2091C3.76149 15.0149 3.96764 16.155 5.09846 16.9154C5.23038 16.999 5.35984 17.0732 5.48693 17.138C5.68442 17.3948 5.9249 17.6186 6.19855 17.8003C7.3032 18.4996 8.2288 18.5484 9.41249 18.0943C10.2017 17.7907 10.7958 17.1064 11.0713 16.3481C11.2444 15.8747 11.2421 15.3981 11.2421 14.9053V0.885376H13.9969C14.1107 1.53268 14.4257 2.45414 15.2586 3.36679C15.5926 3.7114 15.969 4.01606 16.3793 4.27417C16.5005 4.39958 17.1203 5.01961 17.916 5.40025C18.3274 5.59701 18.7611 5.74776 19.2085 5.84954Z" fill="#262626"/>
<path d="M0.413818 16.7173V16.7195L0.482171 16.9048C0.474318 16.8832 0.448917 16.8176 0.413818 16.7173Z" fill="#69C9D0"/>
<path d="M5.51082 9.13132C4.80546 9.39244 4.15036 9.76424 3.57239 10.2315C2.91722 10.7742 2.3654 11.4219 1.94157 12.1457C1.78133 12.4097 1.17528 13.468 1.10136 15.1908C1.05958 16.1672 1.36536 17.1754 1.5109 17.5952C1.51075 17.5962 1.51075 17.5972 1.5109 17.5983C1.60273 17.8377 1.96131 18.6843 2.54854 19.4025C2.71911 19.6107 2.90199 19.8093 3.09628 19.9974C2.47379 19.5848 1.91862 19.086 1.44892 18.5171C0.866741 17.8073 0.507702 16.9695 0.414041 16.7222C0.413931 16.7204 0.413931 16.7186 0.414041 16.7169V16.7138C0.268038 16.2944 -0.0386587 15.2858 0.00403818 14.3081C0.0779581 12.5853 0.684015 11.5279 0.844251 11.2629C1.26796 10.5391 1.8198 9.89133 2.47507 9.34878C3.05292 8.88128 3.70805 8.50948 4.41352 8.24861C4.85355 8.07363 5.31198 7.94459 5.78083 7.86361C6.48737 7.74541 7.20905 7.73508 7.91897 7.83324V8.64732C7.09144 8.66027 6.27405 8.82459 5.51082 9.13132Z" fill="#69C9D0"/>
<path d="M13.9985 0.885372H11.2437V14.9057C11.2437 15.3985 11.2437 15.8738 11.0729 16.3486C10.7947 17.1064 10.2028 17.7906 9.41403 18.0943C8.23001 18.5502 7.3044 18.4996 6.20017 17.8003C5.92602 17.6194 5.68495 17.3964 5.48669 17.1403C6.42745 17.6212 7.26945 17.6128 8.31259 17.2116C9.10095 16.9079 9.69368 16.2236 9.97096 15.4655C10.1445 14.992 10.1422 14.5154 10.1422 14.0229V0H13.9461C13.9461 0 13.9035 0.348513 13.9985 0.885372ZM19.2077 5.06933V5.84954C18.7612 5.7476 18.3283 5.59685 17.9176 5.40025C17.122 5.01961 16.5021 4.39959 16.3809 4.27417C16.5215 4.36268 16.6675 4.4432 16.8179 4.51532C17.7854 4.97825 18.738 5.11642 19.2077 5.06933Z" fill="#69C9D0"/>
</svg>
