<svg width="21" height="21" viewBox="0 0 21 21" fill="none" xmlns="http://www.w3.org/2000/svg">
<path d="M15.4128 5.33883C14.515 4.75347 13.867 3.8169 13.6649 2.7251C13.6212 2.48921 13.5972 2.24644 13.5972 1.99805H10.7319L10.7273 13.4813C10.6791 14.7673 9.62073 15.7994 8.32327 15.7994C7.92001 15.7994 7.5403 15.6986 7.20598 15.5226C6.43932 15.1192 5.91466 14.3156 5.91466 13.3908C5.91466 12.0626 6.99521 10.9821 8.32327 10.9821C8.57118 10.9821 8.809 11.023 9.03396 11.0934V8.16825C8.80115 8.13655 8.56461 8.11673 8.32327 8.11673C5.41515 8.11673 3.04932 10.4827 3.04932 13.3908C3.04932 15.1751 3.94078 16.7541 5.3008 17.7089C6.15745 18.3103 7.19947 18.6647 8.32327 18.6647C11.2314 18.6647 13.5972 16.2989 13.5972 13.3908V7.56778C14.721 8.37439 16.0979 8.84972 17.5836 8.84972V5.98438C16.7833 5.98438 16.0379 5.74645 15.4128 5.33883Z" fill="#215AA8"/>
</svg>
