<svg width="32" height="32" viewBox="0 0 32 32" fill="none" xmlns="http://www.w3.org/2000/svg">
<path d="M32 15.9996C32 24.8361 24.8366 31.9996 16 31.9996C7.16344 31.9996 0 24.8361 0 15.9996C0 7.16302 7.16344 -0.000427246 16 -0.000427246C24.8366 -0.000427246 32 7.16302 32 15.9996Z" fill="#F5F5F5"/>
<path d="M24 10.9996H20V8.99957L18 6.99957H14L12 8.99957V10.9996H8C6.9 10.9996 6 11.8996 6 12.9996V17.9996C6 18.7496 6.4 19.3796 7 19.7296V22.9996C7 24.1096 7.89 24.9996 9 24.9996H23C24.11 24.9996 25 24.1096 25 22.9996V19.7196C25.59 19.3696 26 18.7296 26 17.9996V12.9996C26 11.8996 25.1 10.9996 24 10.9996ZM14 8.99957H18V10.9996H14V8.99957ZM8 12.9996H24V17.9996H19V14.9996H13V17.9996H8V12.9996ZM17 18.9996H15V16.9996H17V18.9996ZM23 22.9996H9V19.9996H13V20.9996H19V19.9996H23V22.9996Z" fill="black"/>
</svg>
