<svg width="32" height="32" viewBox="0 0 32 32" fill="none" xmlns="http://www.w3.org/2000/svg">
<path d="M32 15.9996C32 24.8361 24.8366 31.9996 16 31.9996C7.16344 31.9996 0 24.8361 0 15.9996C0 7.16302 7.16344 -0.000427246 16 -0.000427246C24.8366 -0.000427246 32 7.16302 32 15.9996Z" fill="#F5F5F5"/>
<path d="M24.8388 11.4008C25.2288 11.0108 25.2288 10.3808 24.8388 9.99079L22.0088 7.16079C21.6188 6.77079 20.9888 6.77079 20.5988 7.16079L16.1088 11.6508L12.2188 7.76079C11.4388 6.98079 10.1688 6.98079 9.38877 7.76079L7.48877 9.66079C6.70877 10.4408 6.70877 11.7108 7.48877 12.4908L11.3788 16.3808L6.86877 20.8908V25.1308H11.1088L15.6288 20.6108L19.5188 24.5008C20.4688 25.4508 21.7488 25.1008 22.3488 24.5008L24.2488 22.6008C25.0288 21.8208 25.0288 20.5508 24.2488 19.7708L20.3588 15.8808L24.8388 11.4008ZM8.90877 11.0708L10.7988 9.17079L12.0688 10.4408L10.8888 11.6308L12.2988 13.0408L13.4888 11.8508L14.6888 13.0508L12.7888 14.9508L8.90877 11.0708ZM20.1388 18.5108L18.9488 19.7008L20.3588 21.1108L21.5488 19.9208L22.8188 21.1908L20.9188 23.0908L17.0288 19.2008L18.9288 17.3008L20.1388 18.5108ZM10.2788 23.1308H8.86877V21.7208L18.4788 12.1108L19.8888 13.5208L10.2788 23.1308ZM19.8888 10.6908L21.2988 9.28079L22.7088 10.6908L21.2988 12.1008L19.8888 10.6908Z" fill="black"/>
</svg>
