<svg width="22" height="22" viewBox="0 0 22 22" fill="none" xmlns="http://www.w3.org/2000/svg">
<path d="M18.7 0H3.3C1.47746 0 0 1.47746 0 3.3V18.7C0 20.5225 1.47746 22 3.3 22H18.7C20.5225 22 22 20.5225 22 18.7V3.3C22 1.47746 20.5225 0 18.7 0Z" fill="#ED1D24"/>
<path d="M18.3476 7.26175C18.1757 6.61722 17.6172 6.10159 16.9726 5.92972C15.5117 5.543 6.70309 5.50003 5.02731 5.92972C4.38278 6.10159 3.82419 6.61722 3.65231 7.26175C3.26559 8.89456 3.22262 13.0625 3.65231 14.7383C3.82419 15.3828 4.38278 15.8985 5.02731 16.0703C6.57419 16.5 15.3828 16.5 16.9726 16.0703C17.6172 15.8985 18.1757 15.3828 18.3476 14.7383C18.7343 13.1914 18.7343 8.85159 18.3476 7.26175Z" fill="white"/>
<path d="M9.45312 8.72266V13.2773L13.4492 11" fill="#ED1D24"/>
</svg>
