<svg width="29" height="29" viewBox="0 0 29 29" fill="none" xmlns="http://www.w3.org/2000/svg">
<path d="M14.8233 22.5124H14.8C14.7277 22.5124 7.49083 22.4984 5.665 22.0025C4.66099 21.7321 3.8769 20.9475 3.607 19.9434C3.27867 18.0911 3.12012 16.2128 3.13333 14.3317C3.12485 12.4476 3.28768 10.5665 3.61983 8.71187C3.89716 7.7068 4.6778 6.91865 5.68016 6.63171C7.45583 6.16504 14.4932 6.16504 14.7918 6.16504H14.8163C14.8898 6.16504 22.1453 6.17904 23.9525 6.67487C24.9544 6.94672 25.7369 7.72965 26.0082 8.73171C26.3469 10.5908 26.506 12.4783 26.483 14.3679C26.4912 16.2497 26.3279 18.1284 25.9953 19.9807C25.7219 20.9836 24.9374 21.7664 23.9338 22.0375C22.1605 22.5077 15.122 22.5124 14.8233 22.5124ZM12.49 10.8375L12.4842 17.8375L18.5648 14.3375L12.49 10.8375Z" fill="#215AA8"/>
</svg>
