<svg width="157" height="50" viewBox="0 0 157 50" fill="none" xmlns="http://www.w3.org/2000/svg">
<g filter="url(#filter0_i_120_197)">
<mask id="mask0_120_197" style="mask-type:alpha" maskUnits="userSpaceOnUse" x="0" y="3" width="39" height="43">
<path d="M23.7355 23.8324C23.7355 23.2707 23.511 22.732 23.1114 22.3348C22.7118 21.9376 22.1698 21.7145 21.6047 21.7145C21.5396 21.7145 21.4745 21.7145 21.4109 21.7237V21.7145H8.45857C9.1574 18.5196 11.0398 15.703 13.7317 13.8241C16.4236 11.9452 19.7282 11.1416 22.9888 11.5729C26.2494 12.0041 29.2275 13.6387 31.3314 16.152C33.4353 18.6652 34.5111 21.8731 34.3451 25.1384C34.179 28.4036 32.7833 31.4874 30.4351 33.7769C28.0869 36.0665 24.9582 37.3943 21.6705 37.4965C18.3827 37.5988 15.1766 36.4681 12.689 34.329C10.2014 32.1899 8.61433 29.1989 8.24316 25.9504H21.4109V25.9411C21.4745 25.9473 21.5396 25.9504 21.6047 25.9504C22.1698 25.9504 22.7118 25.7272 23.1114 25.33C23.511 24.9328 23.7355 24.3941 23.7355 23.8324Z" fill="#215AA8"/>
<path d="M39 36.6172C39.0005 36.9125 38.9387 37.2046 38.8186 37.4747C38.6985 37.7448 38.5227 37.9868 38.3026 38.1852C37.8718 38.6987 37.4149 39.1967 36.9319 39.6793C34.9259 41.6804 32.5425 43.2686 29.9182 44.3532C27.294 45.4378 24.4803 45.9974 21.6382 46C18.7961 46.0026 15.9814 45.4482 13.3552 44.3684C10.7289 43.2887 8.3426 41.7048 6.33281 39.7074C4.32303 37.71 2.72922 35.3384 1.64256 32.7281C0.555908 30.1179 -0.00225615 27.3202 6.85373e-06 24.4953C0.00226985 21.6705 0.564916 18.8737 1.65575 16.2652C2.74659 13.6567 4.3442 11.2875 6.35718 9.29334C10.4114 5.26378 15.91 3 21.6434 3C27.3768 3 32.8754 5.26378 36.9296 9.29334C37.2318 9.59319 37.5237 9.90125 37.8052 10.2175C37.8436 10.2606 37.8677 10.3144 37.8741 10.3716C38.1026 10.5702 38.2857 10.8152 38.4111 11.0899C38.5366 11.3646 38.6015 11.6628 38.6016 11.9645C38.6016 12.2662 38.5368 12.5645 38.4114 12.8393C38.2861 13.114 38.1031 13.359 37.8747 13.5578C37.6463 13.7565 37.3779 13.9045 37.0873 13.9917C36.7967 14.0789 36.4907 14.1034 36.1898 14.0635C35.889 14.0236 35.6001 13.9202 35.3427 13.7604C35.0853 13.6005 34.8652 13.3878 34.6973 13.1364C33.0716 11.2833 31.0654 9.79785 28.8137 8.77997C26.562 7.7621 24.117 7.23545 21.6434 7.23546C12.3747 7.23546 4.77959 14.495 4.31003 23.5937C3.77461 33.9601 12.0399 42.2078 22.4702 41.7195C24.9478 41.6013 27.3712 40.9562 29.5767 39.8279C31.7822 38.6995 33.7186 37.1141 35.2552 35.1785C35.2913 35.1328 35.3413 35.0998 35.3977 35.0845C35.6994 34.7978 36.0793 34.6054 36.49 34.5314C36.9008 34.4574 37.3244 34.505 37.7081 34.6683C38.0919 34.8316 38.419 35.1033 38.6486 35.4498C38.8783 35.7963 39.0005 36.2022 39 36.6172Z" fill="#215AA8"/>
</mask>
<g mask="url(#mask0_120_197)">
<path fill-rule="evenodd" clip-rule="evenodd" d="M12.1049 31.2583C4.82367 28.8137 5.19012 20.7234 1.75843 15.0785C-1.35774 9.95256 -7.42854 5.26978 -6.78537 0.184859C-6.06807 -5.48614 -1.36129 -10.0544 5.1755 -11.9368C11.7167 -13.8205 19.7243 -12.3624 26.9769 -9.53777C33.9808 -6.80997 40.683 -2.55581 43.6551 3.04966C46.4207 8.26555 44.2005 13.3543 41.4038 17.6719C39.0953 21.236 34.1324 22.4613 29.7717 24.4834C23.9498 27.1831 19.4124 33.7116 12.1049 31.2583Z" fill="url(#paint0_radial_120_197)"/>
<path fill-rule="evenodd" clip-rule="evenodd" d="M51.0065 32.5184C53.1536 37.4498 53.6082 43.2359 50.8763 48.5234C48.3493 53.4143 42.6347 55.8487 37.5072 58.6461C32.2486 61.5151 26.8817 65.5666 21.345 64.6352C15.6571 63.6784 13.4528 58.2214 10.2363 54.0588C6.07958 48.6794 -2.57586 44.1253 0.209688 37.2833C2.99737 30.4359 13.7074 30.7031 21.0174 27.5774C27.0908 24.9805 32.6799 19.775 38.7983 20.7831C45.0875 21.8193 48.6954 27.2104 51.0065 32.5184Z" fill="url(#paint1_linear_120_197)"/>
<path d="M38.8821 26.5459C38.8821 26.5459 25.5201 42.5151 13.6667 41.6704C-3.17161 39.1339 -5.92145 20.7889 -5.92145 20.7889C-5.92145 20.7889 6.90719 8.94926 17.0805 15.9268C37.3806 29.8499 38.8821 26.5459 38.8821 26.5459Z" fill="url(#paint2_linear_120_197)"/>
</g>
</g>
<g filter="url(#filter1_i_120_197)">
<mask id="mask1_120_197" style="mask-type:alpha" maskUnits="userSpaceOnUse" x="45" y="16" width="95" height="16">
<path d="M58.64 25.52C58.64 26.1733 58.5133 26.8367 58.26 27.51C58.0133 28.1833 57.6367 28.8033 57.13 29.37C56.6233 29.93 55.98 30.3833 55.2 30.73C54.4267 31.0767 53.51 31.25 52.45 31.25C51.0433 31.25 49.84 30.9267 48.84 30.28C47.84 29.6267 47.0767 28.7267 46.55 27.58C46.0233 26.4333 45.76 25.1133 45.76 23.62C45.76 22.1267 46.0233 20.81 46.55 19.67C47.0767 18.5233 47.84 17.6267 48.84 16.98C49.84 16.3333 51.0433 16.01 52.45 16.01C53.6167 16.01 54.6133 16.2167 55.44 16.63C56.2667 17.0433 56.93 17.58 57.43 18.24C57.93 18.9 58.2733 19.6 58.46 20.34C58.58 20.82 58.64 21.2833 58.64 21.73H55.06C55.06 21.5233 55.0467 21.3333 55.02 21.16C54.9533 20.7 54.81 20.2967 54.59 19.95C54.37 19.5967 54.08 19.32 53.72 19.12C53.36 18.92 52.9367 18.82 52.45 18.82C51.8633 18.82 51.34 18.99 50.88 19.33C50.4267 19.6633 50.0633 20.1833 49.79 20.89C49.5233 21.5967 49.39 22.5067 49.39 23.62C49.39 24.7333 49.5233 25.6467 49.79 26.36C50.0633 27.0733 50.4267 27.6 50.88 27.94C51.34 28.28 51.8633 28.45 52.45 28.45C52.8633 28.45 53.23 28.3733 53.55 28.22C53.8767 28.0667 54.15 27.8567 54.37 27.59C54.5967 27.3167 54.7667 27.0033 54.88 26.65C55 26.2967 55.06 25.92 55.06 25.52H58.64ZM62.5345 18.95L64.1445 17.3V23.23L63.3445 22.25H68.7145V24.95H63.3445L64.1445 23.98V29.95L62.5345 28.3H69.8245V31H60.5545V16.25H69.8245V18.95H62.5345ZM77.8744 31.25C76.941 31.25 76.0577 31.0867 75.2244 30.76C74.3977 30.4267 73.6677 29.9367 73.0344 29.29C72.401 28.6433 71.901 27.8467 71.5344 26.9C71.1744 25.9467 70.9944 24.85 70.9944 23.61C70.9944 22.37 71.1744 21.2767 71.5344 20.33C71.8944 19.3833 72.3877 18.59 73.0144 17.95C73.6477 17.31 74.3777 16.8267 75.2044 16.5C76.0377 16.1733 76.9277 16.01 77.8744 16.01C78.821 16.01 79.7077 16.1733 80.5344 16.5C81.3677 16.8267 82.101 17.31 82.7344 17.95C83.3677 18.59 83.861 19.3833 84.2144 20.33C84.5744 21.2767 84.7544 22.37 84.7544 23.61C84.7544 24.85 84.571 25.9467 84.2044 26.9C83.8444 27.8467 83.3444 28.6433 82.7044 29.29C82.071 29.9367 81.3377 30.4267 80.5044 30.76C79.6777 31.0867 78.801 31.25 77.8744 31.25ZM77.8744 28.44C78.4344 28.44 78.961 28.29 79.4544 27.99C79.9477 27.6833 80.3477 27.1767 80.6544 26.47C80.9677 25.7633 81.1244 24.81 81.1244 23.61C81.1244 22.4033 80.9677 21.4533 80.6544 20.76C80.341 20.06 79.9377 19.5633 79.4444 19.27C78.951 18.97 78.4277 18.82 77.8744 18.82C77.321 18.82 76.7944 18.97 76.2944 19.27C75.801 19.5633 75.3977 20.06 75.0844 20.76C74.7777 21.4533 74.6244 22.4033 74.6244 23.61C74.6244 24.8167 74.7777 25.7733 75.0844 26.48C75.3977 27.18 75.801 27.6833 76.2944 27.99C76.7944 28.29 77.321 28.44 77.8744 28.44ZM91.2878 31V28.1C91.3478 28.0067 91.5278 27.8333 91.8278 27.58C92.1345 27.32 92.5045 27.0167 92.9378 26.67C93.3778 26.3233 93.8345 25.9667 94.3078 25.6C94.7811 25.2267 95.2178 24.88 95.6178 24.56C96.0845 24.1933 96.5378 23.81 96.9778 23.41C97.4178 23.01 97.7811 22.5867 98.0678 22.14C98.3545 21.6933 98.4978 21.22 98.4978 20.72C98.4978 20.14 98.3578 19.6633 98.0778 19.29C97.7978 18.9167 97.3478 18.73 96.7278 18.73C96.2211 18.73 95.8211 18.8433 95.5278 19.07C95.2411 19.2967 95.0378 19.61 94.9178 20.01C94.7978 20.41 94.7378 20.8767 94.7378 21.41H91.1678C91.1678 20.29 91.3878 19.3267 91.8278 18.52C92.2678 17.7133 92.9045 17.0933 93.7378 16.66C94.5778 16.2267 95.5911 16.01 96.7778 16.01C97.9511 16.01 98.9311 16.2233 99.7178 16.65C100.504 17.07 101.094 17.64 101.488 18.36C101.881 19.0733 102.078 19.87 102.078 20.75C102.078 21.3567 101.961 21.9167 101.728 22.43C101.501 22.9367 101.204 23.4033 100.838 23.83C100.471 24.2567 100.081 24.6433 99.6678 24.99C99.2545 25.33 98.8611 25.64 98.4878 25.92C97.8611 26.3867 97.3311 26.7867 96.8978 27.12C96.4645 27.4533 96.1245 27.7233 95.8778 27.93C95.6378 28.13 95.4878 28.2733 95.4278 28.36H101.928V31H91.2878ZM109.174 31.25C108.187 31.25 107.35 31.0433 106.664 30.63C105.977 30.2167 105.42 29.6567 104.994 28.95C104.567 28.2433 104.257 27.4367 104.064 26.53C103.87 25.6167 103.774 24.66 103.774 23.66C103.774 22.66 103.87 21.7033 104.064 20.79C104.257 19.87 104.567 19.0533 104.994 18.34C105.42 17.62 105.977 17.0533 106.664 16.64C107.35 16.22 108.187 16.01 109.174 16.01C110.154 16.01 110.987 16.22 111.674 16.64C112.36 17.0533 112.917 17.62 113.344 18.34C113.77 19.0533 114.08 19.87 114.274 20.79C114.474 21.7033 114.574 22.66 114.574 23.66C114.574 24.66 114.474 25.6167 114.274 26.53C114.08 27.4367 113.77 28.2433 113.344 28.95C112.917 29.6567 112.36 30.2167 111.674 30.63C110.987 31.0433 110.154 31.25 109.174 31.25ZM109.174 28.54C109.56 28.54 109.887 28.3867 110.154 28.08C110.42 27.7733 110.624 27.2633 110.764 26.55C110.904 25.8367 110.974 24.8733 110.974 23.66C110.974 22.44 110.904 21.4733 110.764 20.76C110.624 20.0467 110.42 19.54 110.154 19.24C109.887 18.9333 109.56 18.78 109.174 18.78C108.794 18.78 108.467 18.9333 108.194 19.24C107.92 19.54 107.714 20.0467 107.574 20.76C107.434 21.4733 107.364 22.44 107.364 23.66C107.364 24.88 107.434 25.8467 107.574 26.56C107.714 27.2667 107.92 27.7733 108.194 28.08C108.467 28.3867 108.794 28.54 109.174 28.54ZM116.093 31V28.1C116.153 28.0067 116.333 27.8333 116.632 27.58C116.939 27.32 117.309 27.0167 117.743 26.67C118.183 26.3233 118.639 25.9667 119.113 25.6C119.586 25.2267 120.023 24.88 120.423 24.56C120.889 24.1933 121.343 23.81 121.783 23.41C122.223 23.01 122.586 22.5867 122.873 22.14C123.159 21.6933 123.303 21.22 123.303 20.72C123.303 20.14 123.163 19.6633 122.883 19.29C122.603 18.9167 122.153 18.73 121.533 18.73C121.026 18.73 120.626 18.8433 120.333 19.07C120.046 19.2967 119.843 19.61 119.723 20.01C119.603 20.41 119.543 20.8767 119.543 21.41H115.972C115.972 20.29 116.192 19.3267 116.632 18.52C117.073 17.7133 117.709 17.0933 118.543 16.66C119.383 16.2267 120.396 16.01 121.583 16.01C122.756 16.01 123.736 16.2233 124.523 16.65C125.309 17.07 125.899 17.64 126.293 18.36C126.686 19.0733 126.883 19.87 126.883 20.75C126.883 21.3567 126.766 21.9167 126.533 22.43C126.306 22.9367 126.009 23.4033 125.642 23.83C125.276 24.2567 124.886 24.6433 124.473 24.99C124.059 25.33 123.666 25.64 123.293 25.92C122.666 26.3867 122.136 26.7867 121.703 27.12C121.269 27.4533 120.929 27.7233 120.683 27.93C120.443 28.13 120.293 28.2733 120.233 28.36H126.733V31H116.093ZM136.698 23.22C137.272 23.24 137.778 23.4033 138.218 23.71C138.665 24.01 139.012 24.4133 139.258 24.92C139.505 25.4267 139.628 26.0033 139.628 26.65C139.628 27.4567 139.442 28.21 139.068 28.91C138.702 29.61 138.125 30.1767 137.338 30.61C136.552 31.0367 135.538 31.25 134.298 31.25C133.225 31.25 132.338 31.1133 131.638 30.84C130.938 30.56 130.385 30.18 129.978 29.7C129.572 29.22 129.285 28.68 129.118 28.08C128.952 27.4733 128.868 26.84 128.868 26.18C128.868 26.1733 128.868 26.1667 128.868 26.16C128.868 26.1533 128.868 26.1467 128.868 26.14H132.428C132.428 26.1467 132.428 26.1533 132.428 26.16C132.428 26.1667 132.428 26.1733 132.428 26.18C132.428 26.8 132.508 27.28 132.668 27.62C132.828 27.96 133.048 28.2 133.328 28.34C133.615 28.4733 133.952 28.54 134.338 28.54C134.838 28.54 135.248 28.39 135.568 28.09C135.895 27.79 136.058 27.2767 136.058 26.55C136.058 26.2167 136.018 25.9267 135.938 25.68C135.858 25.4267 135.735 25.2167 135.568 25.05C135.408 24.8833 135.192 24.76 134.918 24.68C134.652 24.6 134.325 24.56 133.938 24.56H133.438V22.12H133.938C134.325 22.12 134.652 22.07 134.918 21.97C135.185 21.87 135.402 21.7367 135.568 21.57C135.742 21.3967 135.865 21.1967 135.938 20.97C136.018 20.7433 136.058 20.5067 136.058 20.26C136.058 19.7333 135.898 19.3467 135.578 19.1C135.265 18.8533 134.872 18.73 134.398 18.73C133.845 18.73 133.378 18.8867 132.998 19.2C132.618 19.5133 132.428 20.0767 132.428 20.89H128.868C128.868 20.2567 128.968 19.65 129.168 19.07C129.368 18.4833 129.682 17.9633 130.108 17.51C130.542 17.05 131.105 16.6867 131.798 16.42C132.498 16.1467 133.342 16.01 134.328 16.01C135.582 16.01 136.595 16.21 137.368 16.61C138.148 17.01 138.718 17.5233 139.078 18.15C139.445 18.77 139.628 19.41 139.628 20.07C139.628 20.6367 139.505 21.1567 139.258 21.63C139.012 22.0967 138.665 22.4733 138.218 22.76C137.778 23.04 137.272 23.1933 136.698 23.22Z" fill="white" fill-opacity="0.4"/>
</mask>
<g mask="url(#mask1_120_197)">
<path fill-rule="evenodd" clip-rule="evenodd" d="M70.6295 57.1923C59.8551 63.3642 50.3837 54.1936 39.8281 52.256C30.243 50.4964 18.0354 52.7895 12.5244 46.5261C6.3782 39.5409 5.84689 28.9186 10.5491 18.9797C15.2544 9.0341 25.6037 0.919357 36.8109 -4.80786C47.6338 -10.3388 59.9947 -13.8581 70.0103 -11.407C79.3298 -9.12621 83.1574 -0.950777 85.4277 7.09014C87.3018 13.7278 83.4833 21.0536 81.2808 28.5106C78.3404 38.4662 81.4428 50.9982 70.6295 57.1923Z" fill="url(#paint3_radial_120_197)"/>
<path fill-rule="evenodd" clip-rule="evenodd" d="M135.63 7.47064C143.941 10.1927 151.482 15.8844 155.004 24.8931C158.262 33.2264 155.113 42.766 153.035 51.987C150.903 61.4438 150.098 72.3071 143.036 78.0008C135.781 83.85 126.768 80.6301 118.25 80.0311C107.242 79.2571 92.4248 84.8159 87.0647 74.0651C81.7006 63.3062 93.4907 50.6373 97.5047 38.4218C100.84 28.2727 100.476 15.8956 108.254 9.58094C116.25 3.09006 126.685 4.54066 135.63 7.47064Z" fill="url(#paint4_linear_120_197)"/>
<path d="M88.4719 -14.113C88.4719 -14.113 116.993 4.09177 118.899 22.3352C119.522 48.4372 91.6774 55.201 91.6774 55.201C91.6774 55.201 69.7371 37.2357 77.847 20.7059C94.0296 -12.2779 88.4719 -14.113 88.4719 -14.113Z" fill="url(#paint5_linear_120_197)"/>
</g>
</g>
<defs>
<filter id="filter0_i_120_197" x="0" y="3" width="39" height="46" filterUnits="userSpaceOnUse" color-interpolation-filters="sRGB">
<feFlood flood-opacity="0" result="BackgroundImageFix"/>
<feBlend mode="normal" in="SourceGraphic" in2="BackgroundImageFix" result="shape"/>
<feColorMatrix in="SourceAlpha" type="matrix" values="0 0 0 0 0 0 0 0 0 0 0 0 0 0 0 0 0 0 127 0" result="hardAlpha"/>
<feOffset dy="3"/>
<feGaussianBlur stdDeviation="2"/>
<feComposite in2="hardAlpha" operator="arithmetic" k2="-1" k3="1"/>
<feColorMatrix type="matrix" values="0 0 0 0 0 0 0 0 0 0 0 0 0 0 0 0 0 0 0.4 0"/>
<feBlend mode="normal" in2="shape" result="effect1_innerShadow_120_197"/>
</filter>
<filter id="filter1_i_120_197" x="45" y="15" width="96" height="22" filterUnits="userSpaceOnUse" color-interpolation-filters="sRGB">
<feFlood flood-opacity="0" result="BackgroundImageFix"/>
<feBlend mode="normal" in="SourceGraphic" in2="BackgroundImageFix" result="shape"/>
<feColorMatrix in="SourceAlpha" type="matrix" values="0 0 0 0 0 0 0 0 0 0 0 0 0 0 0 0 0 0 127 0" result="hardAlpha"/>
<feOffset dy="1"/>
<feGaussianBlur stdDeviation="0.5"/>
<feComposite in2="hardAlpha" operator="arithmetic" k2="-1" k3="1"/>
<feColorMatrix type="matrix" values="0 0 0 0 0 0 0 0 0 0 0 0 0 0 0 0 0 0 0.4 0"/>
<feBlend mode="normal" in2="shape" result="effect1_innerShadow_120_197"/>
</filter>
<radialGradient id="paint0_radial_120_197" cx="0" cy="0" r="1" gradientUnits="userSpaceOnUse" gradientTransform="translate(35.8423 12.7614) rotate(-164.884) scale(22.3152 26.77)">
<stop stop-color="#DA4E7A"/>
<stop offset="0.317708" stop-color="#DA4E7A"/>
<stop offset="0.53125" stop-color="#DA4E7A"/>
</radialGradient>
<linearGradient id="paint1_linear_120_197" x1="49.8596" y1="27.4975" x2="15.6737" y2="32.2838" gradientUnits="userSpaceOnUse">
<stop offset="0.302083" stop-color="#B89B22"/>
<stop offset="0.75" stop-color="#FDDE5E"/>
</linearGradient>
<linearGradient id="paint2_linear_120_197" x1="8.5331" y1="23.887" x2="32.0882" y2="32.231" gradientUnits="userSpaceOnUse">
<stop stop-color="#215AA8"/>
<stop offset="0.5" stop-color="#1D4C8B"/>
<stop offset="1" stop-color="#112C52"/>
</linearGradient>
<radialGradient id="paint3_radial_120_197" cx="0" cy="0" r="1" gradientUnits="userSpaceOnUse" gradientTransform="translate(94.1214 9.9917) rotate(146.73) scale(36.0667 43.5559)">
<stop stop-color="#DA4E7A"/>
<stop offset="0.317708" stop-color="#DA4E7A"/>
<stop offset="0.53125" stop-color="#DA4E7A"/>
</radialGradient>
<linearGradient id="paint4_linear_120_197" x1="135.434" y1="7.88913" x2="98.4386" y2="48.887" gradientUnits="userSpaceOnUse">
<stop offset="0.421875" stop-color="#B89B22"/>
<stop offset="1" stop-color="#FDDE5E"/>
</linearGradient>
<linearGradient id="paint5_linear_120_197" x1="92.5771" y1="32.6658" x2="101.478" y2="-3.95866" gradientUnits="userSpaceOnUse">
<stop stop-color="#215AA8"/>
<stop offset="0.5" stop-color="#1D4C8B"/>
<stop offset="1" stop-color="#112C52"/>
</linearGradient>
</defs>
</svg>
